<svg xmlns="http://www.w3.org/2000/svg" xmlns:xlink="http://www.w3.org/1999/xlink" width="100" height="100" viewBox="0 0 100 100"><g transform="translate(50 50) scale(-0.69 0.69) rotate(0) translate(-50 -50)" style="fill:#000000"><svg fill="#000000" xmlns="http://www.w3.org/2000/svg" xmlns:xlink="http://www.w3.org/1999/xlink" version="1.1" x="0px" y="0px" viewBox="0 0 64 64" style="enable-background:new 0 0 64 64;" xml:space="preserve"><path d="M16,38h6v-2h-5V19c0-8.2842712,6.7157288-15,15-15s15,6.7157288,15,15v17h-5v2h6c0.5522842,0,1-0.4477158,1-1V19  c0-9.3888407-7.6111603-17-17-17S15,9.6111593,15,19v18C15,37.5522842,15.4477148,38,16,38z"></path><path d="M12,62h40c0.5522842,0,1-0.4477158,1-1V50c-0.0044098-3.8641663-3.1358337-6.9955902-7-7h-8v-5.6240005  C41.7077713,35.235321,43.9941788,31.2813606,44,27V14h-2v4h-6v-5h-2v5h-4v-4h-2v4h-2v-3h-2v3h-2v-5h-2v14  c0.0058193,4.2813606,2.2922268,8.235321,6,10.3759995V43h-8c-3.8641653,0.0044098-6.9955912,3.1358337-7,7v11  C11,61.5522842,11.4477148,62,12,62z M22,27v-7h20v7c0,5.5228462-4.4771538,10-10,10S22,32.5228462,22,27z M27,45  c0.5522842,0,1-0.4477158,1-1v-5.7000008c2.5850067,0.9332962,5.4149933,0.9332962,8,0V44c0,0.5522842,0.4477158,1,1,1h1.8160019  C38.3937454,46.1943512,37.2667847,46.994751,36,47h-8c-1.2667847-0.0052528-2.3937454-0.8056488-2.816-2H27z M13,50  c0.0033064-2.7600517,2.2399473-4.9966927,5-5h5.1000004C23.578083,47.3266296,25.6247616,48.9973869,28,49h8  c2.3752403-0.0026131,4.4219208-1.6733704,4.9000015-4H46c2.7600517,0.0033073,4.9966927,2.2399483,5,5v10H13V50z"></path><path d="M27,24.25c-0.9664974,0-1.75,0.7835026-1.75,1.75s0.7835026,1.75,1.75,1.75s1.75-0.7835026,1.75-1.75  C28.7488976,25.0339584,27.9660416,24.2511024,27,24.25z M26.75,26c0-0.1380711,0.1119289-0.25,0.25-0.25s0.25,0.1119289,0.25,0.25  C27.25,26.2749996,26.75,26.2749996,26.75,26z"></path><path d="M37,27.75c0.9664993,0,1.75-0.7835026,1.75-1.75s-0.7835007-1.75-1.75-1.75s-1.75,0.7835026-1.75,1.75  C35.2511024,26.9660416,36.0339584,27.7488976,37,27.75z M37,25.75c0.138073,0,0.25,0.1119289,0.25,0.25  c0,0.2749996-0.5,0.2749996-0.5,0C36.75,25.8619289,36.861927,25.75,37,25.75z"></path><path d="M35.75,31h-1.5c0,1.2426414-1.0073586,2.25-2.25,2.25s-2.25-1.0073586-2.25-2.25h-1.5c0,2.0710678,1.6789322,3.75,3.75,3.75  S35.75,33.0710678,35.75,31z"></path></svg></g></svg>